# xmcd
#
# Track frame offsets:
#	150
#	12322
#	24780
#	35335
#	46640
#	59072
#	71537
#	84390
#	98900
#	113125
#	125772
#	138645
#	153827
#	167632
#
# Disc length: 2586 seconds
#
# Revision: 0
# Processed by: cddbd v1.5.2PL0 Copyright (c) Steve Scherf et al.
# Submitted via: dBpowerAMP V4.0
#
DISCID=b00a180e
DTITLE=Joe Simon - Lookin' Back
DYEAR=1989
DGENRE=R&B
TTITLE0=The Choking Kind
TTITLE1=My Special Prayer
TTITLE2=No Sad Songs
TTITLE3=Teenager's Prayer
TTITLE4=(Yo Keep) Me Hangin' On
TTITLE5=Baby Don't Be (Looking In My Mind)
TTITLE6=Nine Pound Steel
TTITLE7=Misty Blue
TTITLE8=Farther Down The Road
TTITLE9=In The Ghetto
TTITLE10=Sittin' On The Dock Of The Bay
TTITLE11=Message From Maria
TTITLE12=Yours Love
TTITLE13=Moonwalk
EXTD=
EXTT0=
EXTT1=
EXTT2=
EXTT3=
EXTT4=
EXTT5=
EXTT6=
EXTT7=
EXTT8=
EXTT9=
EXTT10=
EXTT11=
EXTT12=
EXTT13=
PLAYORDER=
